<?xml version="1.0" standalone="no"?>
<!DOCTYPE svg PUBLIC "-//W3C//DTD SVG 1.0//EN" "http://www.w3.org/TR/2001/REC-SVG-20010904/DTD/svg10.dtd">
<svg xmlns="http://www.w3.org/2000/svg" xmlns:xlink="http://www.w3.org/1999/xlink" id="body_1" width="150" height="112">

<g transform="matrix(0.21875 0 0 0.21875 19 -0)">
    <path d="M475.89 476.105L36.11 476.105C 22.815 476.105 12.037001 465.32602 12.037001 452.032L12.037001 452.032L12.037001 148.012C 12.037001 134.717 22.816002 123.937996 36.11 123.937996L36.11 123.937996L475.89 123.937996C 489.18503 123.937996 499.96402 134.717 499.96402 148.012L499.96402 148.012L499.96402 452.033C 499.963 465.326 489.185 476.105 475.89 476.105z" stroke="none" fill="#FFFFFF" fill-rule="nonzero" />
    <path d="M159.253 51.944L159.253 123.937L196.751 123.937L196.751 73.394L315.247 73.394L315.247 123.937L352.746 123.937L352.746 51.944C 352.746 43.08 345.561 35.895 336.697 35.895L336.697 35.895L175.302 35.895C 166.438 35.895 159.253 43.08 159.253 51.944z" stroke="none" fill="#FFDA79" fill-rule="nonzero" />
    <path d="M371.246 300.02C 371.24603 331.84485 359.99423 359.00906 337.49066 381.51263C 314.9871 404.01624 287.82288 415.268 255.998 415.268C 224.17316 415.268 197.00894 404.01624 174.50536 381.51263C 152.00179 359.00906 140.75 331.84485 140.75 300.02C 140.75 268.19513 152.00179 241.03093 174.50536 218.52734C 197.00894 196.02377 224.17316 184.77199 255.998 184.77199C 287.82288 184.77199 314.9871 196.02377 337.49066 218.52734C 359.99423 241.03093 371.24603 268.19513 371.246 300.02C 371.24603 301.36108 371.2226 302.70178 371.17578 304.04208" stroke="none" fill="#FF7876" fill-rule="nonzero" />
	<g>
        <path d="M157.616 239.986L12.037 239.986L12.037 360.057L157.614 360.057C 135.128 323.283 135.112 276.784 157.616 239.986z" stroke="none" fill="#80D0E1" fill-rule="nonzero" />
        <path d="M354.386 239.986C 365.07898 257.471 371.24698 278.025 371.24698 300.022C 371.24698 322.019 365.07797 342.571 354.386 360.058L354.386 360.058L499.96298 360.058L499.96298 239.987L354.386 239.987L354.386 239.986z" stroke="none" fill="#80D0E1" fill-rule="nonzero" />
	</g>
    <path d="M475.89 111.902L364.783 111.902L364.783 51.944C 364.783 36.458 352.18298 23.858 336.697 23.858L336.697 23.858L175.302 23.858C 159.81601 23.858 147.216 36.458 147.216 51.944L147.216 51.944L147.216 111.9L36.11 111.9C 16.2 111.9 0 128.098 0 148.01C 0 162.15399 0 435.18 0 452.031C 0 471.943 16.2 488.141 36.11 488.141L36.11 488.141L475.89 488.141C 495.80002 488.141 512 471.943 512 452.031C 512 437.887 512 164.861 512 148.01001C 512 128.1 495.802 111.902 475.89 111.902zM171.289 51.944C 171.289 49.732002 173.088 47.932 175.301 47.932L175.301 47.932L336.69598 47.932C 338.909 47.932 340.70798 49.732998 340.70798 51.944L340.70798 51.944L340.70798 111.9L327.283 111.9L327.283 73.394C 327.283 66.746994 321.895 61.357 315.246 61.357L315.246 61.357L196.751 61.357C 190.102 61.357 184.714 66.746 184.714 73.394L184.714 73.394L184.714 111.9L171.289 111.9L171.289 51.944zM208.789 111.902L208.789 85.43L303.212 85.43L303.212 111.9L208.789 111.9L208.789 111.902zM36.11 135.975C 51.405 135.975 457.377 135.975 475.88898 135.975C 482.52698 135.975 487.92596 141.37401 487.92596 148.01201L487.92596 148.01201L487.92596 227.95001L360.83597 227.95001C 310.05197 154.30902 201.86697 154.42601 151.16397 227.95001L151.16397 227.95001L24.073 227.95001L24.073 148.01201C 24.073 141.374 29.472 135.975 36.11 135.975zM487.926 348.021L373.905 348.021C 386.33 317.499 386.345 282.575 373.905 252.02399L373.905 252.02399L487.927 252.02399L487.927 348.021zM256.001 403.233C 199.082 403.233 152.79001 356.924 152.79001 300.022C 152.79001 243.10901 199.095 196.811 256.001 196.811C 312.927 196.811 359.212 243.12401 359.212 300.022C 359.21 356.933 312.909 403.233 256.001 403.233zM138.095 348.021L24.073 348.021L24.073 252.02399L138.095 252.02399C 126.11 281.461 125.222 316.4 138.095 348.021zM475.89 464.068L36.11 464.068C 29.472 464.068 24.073002 458.669 24.073002 452.031L24.073002 452.031L24.073002 372.09302L151.163 372.09302C 201.94699 445.734 310.132 445.617 360.835 372.09302L360.835 372.09302L487.925 372.09302L487.925 452.031C 487.926 458.669 482.528 464.068 475.89 464.068z" stroke="none" fill="#58595B" fill-rule="nonzero" />
    <path d="M282.031 365.725L282.031 333.59702C 282.031 329.43103 285.409 326.052 289.57602 326.052L289.57602 326.052L321.704 326.052C 325.87 326.052 329.24902 322.674 329.24902 318.507L329.24902 318.507L329.24902 281.53497C 329.24902 277.369 325.87103 273.98996 321.704 273.98996L321.704 273.98996L289.57602 273.98996C 285.41003 273.98996 282.031 270.61197 282.031 266.44495L282.031 266.44495L282.031 234.31696C 282.031 230.15096 278.653 226.77196 274.486 226.77196L274.486 226.77196L237.51399 226.77196C 233.34799 226.77196 229.969 230.14996 229.969 234.31696L229.969 234.31696L229.969 266.44495C 229.969 270.61093 226.59099 273.98996 222.424 273.98996L222.424 273.98996L190.29599 273.98996C 186.12999 273.98996 182.75099 277.36795 182.75099 281.53497L182.75099 281.53497L182.75099 318.50696C 182.75099 322.67294 186.129 326.05197 190.29599 326.05197L190.29599 326.05197L222.42398 326.05197C 226.58998 326.05197 229.96898 329.42996 229.96898 333.597L229.96898 333.597L229.96898 365.72498C 229.96898 369.89096 233.34698 373.27 237.51398 373.27L237.51398 373.27L274.48596 373.27C 278.652 373.269 282.031 369.893 282.031 365.725z" stroke="none" fill="#FFFFFF" fill-rule="nonzero" />
	<g>
	</g>
	<g>
	</g>
	<g>
	</g>
	<g>
	</g>
	<g>
	</g>
	<g>
	</g>
	<g>
	</g>
	<g>
	</g>
	<g>
	</g>
	<g>
	</g>
	<g>
	</g>
	<g>
	</g>
	<g>
	</g>
	<g>
	</g>
	<g>
	</g>
</g>
</svg>